<svg viewBox="0 0 156.47 241.04" xmlns="http://www.w3.org/2000/svg" xmlns:xlink="http://www.w3.org/1999/xlink"><linearGradient id="a" gradientTransform="matrix(156.47 0 0 -241.04 116.12 260562)" gradientUnits="userSpaceOnUse" x1="5.36" x2="5.36" y1="1079.26" y2="1078.26"><stop offset="0" stop-color="#9166fe"/><stop offset="1" stop-color="#c97aed"/></linearGradient><path d="m947.46 661a5.8 5.8 0 0 1 -5.78-5.78v-5h26.52v-1.77h-26.52v-7.12a2.09 2.09 0 0 1 0-4.07v-.06h-.11v-34.15h.22v34.18h7.49v-34.18h-6.92c1-6.8 0-14.14-2.82-21.83a84.54 84.54 0 0 0 -10.14-19.16 123 123 0 0 0 -8.16-10.47h16.6c1.3 3 2.52 6.09 3.63 9.28a131.15 131.15 0 0 1 7.25 42.18h1.36a131.76 131.76 0 0 0 -7.39-42.59c-1-3-2.14-6-3.41-8.87h15v51.46h-4.79v34.18h11.31v-34.18h-5.16v-51.46h14.56c-.66 1.32-1.29 2.74-1.89 4.21-5.86 14.53-7.62 33.7-8.07 47.23h.59.2v34.18h7l-.15-34.17h.22l.16 34.18h-.09v.09a2.09 2.09 0 0 1 0 4v14a5.8 5.8 0 0 1 -5.78 5.78zm19.92-58h-5.77a206.64 206.64 0 0 1 2-22.9 106.57 106.57 0 0 1 5.94-23.66c.7-1.74 1.45-3.39 2.23-4.9h17a85.9 85.9 0 0 0 -7.1 8.38 76.56 76.56 0 0 0 -10.35 18.63 61.44 61.44 0 0 0 -3.94 24.45zm-26-4.37c-1-6.1-4.67-18-18.8-28.94-.38-.3-.82-.59-1.23-.86l-.18-.12c-3.2-2.17-6.29-4.51-9.26-7a126.37 126.37 0 0 1 -10.91-10.12h18.51a122.09 122.09 0 0 1 8.86 11.28 83 83 0 0 1 10 18.82 47.39 47.39 0 0 1 3 17zm27.51-2.81a60 60 0 0 1 3.77-16.81 74.83 74.83 0 0 1 10.14-18.28 83.43 83.43 0 0 1 7.91-9.2h21.29a77.92 77.92 0 0 1 -21.51 16.26 42.24 42.24 0 0 0 -15.39 13.48 39.69 39.69 0 0 0 -6.25 14.55zm28.36-52h-20.4a114.5 114.5 0 0 0 9-43.66 154.24 154.24 0 0 0 -4.86-40 178.51 178.51 0 0 0 -14.89-39.39c1.5.21 3 .48 4.6.8a77.29 77.29 0 0 1 11.1 3.17l-.48.48a99 99 0 0 1 8.18 10.09 128.23 128.23 0 0 1 7.14 11.13 115.62 115.62 0 0 1 7 14.44 95.07 95.07 0 0 1 7.2 37.86c-.37 15.48-5 30.62-13.63 45zm-63.22 0h-20.15l-.37-.36-.08-.08c-8.75-14.48-13.3-29.71-13.53-45.26a94.79 94.79 0 0 1 7.7-37.94 120.18 120.18 0 0 1 7.4-14.69 132.39 132.39 0 0 1 7.48-11.26 101.76 101.76 0 0 1 8.22-9.84l-.47-.48a78.4 78.4 0 0 1 14.82-3.31c-1.11 2-3.39 6.35-6.12 12.7a184.72 184.72 0 0 0 -9.07 26.49 151.87 151.87 0 0 0 -5.07 39.8 113.19 113.19 0 0 0 9.21 44.24zm-21.88 0h-17.9a91.17 91.17 0 0 1 -11.47-18.53 66.06 66.06 0 0 1 -6.18-27.4 77.93 77.93 0 0 1 52.24-73.51 125.64 125.64 0 0 0 -22.44 35.24 96.06 96.06 0 0 0 -7.8 38.49c.21 15.74 4.77 31.12 13.56 45.71zm86.71 0c8.54-14.36 13-29.51 13.43-45a97 97 0 0 0 -7.33-38.42 124.3 124.3 0 0 0 -21.68-35c.71.27 1.43.57 2.12.86a78.25 78.25 0 0 1 36.17 112.74c-1 1.66-2.08 3.28-3.18 4.81zm-23.45 0h-19.75v-123.82a79.52 79.52 0 0 1 9.63.7l-.59.33c.42.75 2.64 4.83 5.47 11.38a188.48 188.48 0 0 1 9.55 28.12 152.8 152.8 0 0 1 4.82 39.6 113.16 113.16 0 0 1 -9.15 43.68zm-21.1 0h-18.8l-.13-.23a112.11 112.11 0 0 1 -9.23-44 151.3 151.3 0 0 1 5-39.44 182.7 182.7 0 0 1 9.72-28c2.77-6.29 5-10.28 5.57-11.35l-.58-.34a81.81 81.81 0 0 1 8.42-.5v123.86z" fill="url(#a)" transform="translate(-876.58 -420)"/></svg>