<?xml version="1.0" encoding="UTF-8" standalone="no"?>
<svg
   xmlns:osb="http://www.openswatchbook.org/uri/2009/osb"
   xmlns:dc="http://purl.org/dc/elements/1.1/"
   xmlns:cc="http://creativecommons.org/ns#"
   xmlns:rdf="http://www.w3.org/1999/02/22-rdf-syntax-ns#"
   xmlns:svg="http://www.w3.org/2000/svg"
   xmlns="http://www.w3.org/2000/svg"
   xmlns:sodipodi="http://sodipodi.sourceforge.net/DTD/sodipodi-0.dtd"
   xmlns:inkscape="http://www.inkscape.org/namespaces/inkscape"
   width="7.88889in"
   height="5.51111in"
   viewBox="0 0 710 496"
   version="1.1"
   id="svg1384"
   sodipodi:docname="stealth-bomber.svg"
   inkscape:version="0.92.3 (2405546, 2018-03-11)">
  <title
     id="title3760">Stealth Bomber</title>
  <metadata
     id="metadata1390">
    <rdf:RDF>
      <cc:Work
         rdf:about="">
        <dc:format>image/svg+xml</dc:format>
        <dc:type
           rdf:resource="http://purl.org/dc/dcmitype/StillImage" />
        <dc:title>Stealth Bomber</dc:title>
        <cc:license
           rdf:resource="http://creativecommons.org/publicdomain/zero/1.0/" />
        <dc:date>2020</dc:date>
        <dc:creator>
          <cc:Agent>
            <dc:title>TensorTom</dc:title>
          </cc:Agent>
        </dc:creator>
        <dc:rights>
          <cc:Agent>
            <dc:title></dc:title>
          </cc:Agent>
        </dc:rights>
        <dc:subject>
          <rdf:Bag>
            <rdf:li>airplane</rdf:li>
            <rdf:li>bomber</rdf:li>
            <rdf:li>stealth</rdf:li>
            <rdf:li>svg</rdf:li>
            <rdf:li>clipart</rdf:li>
          </rdf:Bag>
        </dc:subject>
        <dc:description>A minimal vector stealth bomber.</dc:description>
      </cc:Work>
      <cc:License
         rdf:about="http://creativecommons.org/publicdomain/zero/1.0/">
        <cc:permits
           rdf:resource="http://creativecommons.org/ns#Reproduction" />
        <cc:permits
           rdf:resource="http://creativecommons.org/ns#Distribution" />
        <cc:permits
           rdf:resource="http://creativecommons.org/ns#DerivativeWorks" />
      </cc:License>
    </rdf:RDF>
  </metadata>
  <defs
     id="defs1388">
    <linearGradient
       id="linearGradient3657"
       osb:paint="solid">
      <stop
         style="stop-color:#ff0000;stop-opacity:1;"
         offset="0"
         id="stop3655" />
    </linearGradient>
  </defs>
  <sodipodi:namedview
     pagecolor="#ffffff"
     bordercolor="#666666"
     borderopacity="1"
     objecttolerance="10"
     gridtolerance="10"
     guidetolerance="10"
     inkscape:pageopacity="0"
     inkscape:pageshadow="2"
     inkscape:window-width="1920"
     inkscape:window-height="1055"
     id="namedview1386"
     showgrid="false"
     inkscape:zoom="1.6387353"
     inkscape:cx="376.83603"
     inkscape:cy="264.53327"
     inkscape:window-x="0"
     inkscape:window-y="0"
     inkscape:window-maximized="1"
     inkscape:current-layer="svg1384" />
  <path
     d="m 465.5,413.23 c -3.45,0 -6.25,2.79 -6.25,6.24 0,0 0,44.09 0,44.09 0,3.45 2.8,6.24 6.25,6.24 3.46,0 6.25,-2.79 6.25,-6.24 0,0 0,-44.09 0,-44.09 0,-3.45 -2.79,-6.24 -6.25,-6.24"
     id="path3649"
     inkscape:connector-curvature="0"
     style="display:inline;fill:#000000;stroke:#000000;stroke-opacity:1;fill-opacity:1"
     inkscape:label="wind1" />
  <path
     d="m 239.84,413.23 c -3.45,0 -6.25,2.79 -6.25,6.24 0,0 0,44.09 0,44.09 0,3.45 2.8,6.24 6.25,6.24 3.45,0 6.25,-2.79 6.25,-6.24 0,0 0,-44.09 0,-44.09 0,-3.45 -2.8,-6.24 -6.25,-6.24"
     id="path3647"
     inkscape:connector-curvature="0"
     style="display:inline;fill:#000000;stroke:#000000;stroke-opacity:1;fill-opacity:1"
     inkscape:label="wind2" />
  <path
     d="m 285.18,439.05 c -3.45,0 -6.25,2.8 -6.25,6.25 0,0 0,44.08 0,44.08 0,3.45 2.8,6.25 6.25,6.25 3.45,0 6.25,-2.8 6.25,-6.25 0,0 0,-44.08 0,-44.08 0,-3.45 -2.8,-6.25 -6.25,-6.25"
     id="path3645"
     inkscape:connector-curvature="0"
     style="display:inline;fill:#000000;stroke:#000000;stroke-opacity:1;fill-opacity:1"
     inkscape:label="wind3" />
  <path
     d="m 418.98,439.05 c -3.45,0 -6.25,2.8 -6.25,6.25 0,0 0,44.08 0,44.08 0,3.45 2.8,6.25 6.25,6.25 3.46,0 6.25,-2.8 6.25,-6.25 0,0 0,-44.08 0,-44.08 0,-3.45 -2.79,-6.25 -6.25,-6.25"
     id="path3643"
     inkscape:connector-curvature="0"
     style="display:inline;fill:#000000;stroke:#000000;stroke-opacity:1;fill-opacity:1"
     inkscape:label="wind4" />
  <path
     d="m 145,348 c -4.57,5.87 -13.16,12.11 -19,17.13 0,0 -39,33 -39,33 -4.35,3.74 -18.13,16.45 -23,17.12 -5.57,0.76 -11.31,-6.68 -15,-10.21 0,0 -37,-35.13 -37,-35.13 C 8.01,366.2 -0.79,358.98 0.47,353 1.36,348.81 7.91,343.09 11,340 c 0,0 27,-26 27,-26 0,0 24,-23.01 24,-23.01 0,0 38,-37.95 38,-37.95 0,0 9,-8.08 9,-8.08 0,0 36,-35.24 36,-35.24 0,0 33,-32.68 33,-32.68 0,0 9,-8.08 9,-8.08 0,0 29,-28.95 29,-28.95 0,0 10,-9.05 10,-9.05 0,0 29,-28.95 29,-28.95 0,0 10,-9.05 10,-9.05 0,0 36,-35.24 36,-35.24 0,0 38,-37.14 38,-37.14 3.53,-3.07 10.87,-11.37 15,-12.04 5.59,-0.91 14.7,10.31 19,14.04 0,0 31,30.42 31,30.42 0,0 22,21 22,21 0,0 21,20.96 21,20.96 0,0 10,9.05 10,9.05 0,0 28,27.98 28,27.98 0,0 12,11.01 12,11.01 0,0 28,27.96 28,27.96 0,0 9,8.08 9,8.08 0,0 29,28.95 29,28.95 0,0 10,9.05 10,9.05 0,0 62,60.94 62,60.94 0,0 12.6,10.61 12.6,10.61 0,0 12.4,13.41 12.4,13.41 0,0 22,21.96 22,21.96 0,0 11,10.04 11,10.04 4.52,4.47 17.92,15.39 16.53,22 -0.72,3.41 -4.15,6.6 -6.53,9 0,0 -18,17 -18,17 0,0 -25,24 -25,24 -2.95,2.94 -7.81,8.6 -12,9.24 -5.95,0.92 -18.3,-11.38 -23,-15.37 0,0 -9,-7.07 -9,-7.07 0,0 -25,-21.72 -25,-21.72 0,0 -27,-23.08 -27,-23.08 0,0 -14,14 -14,14 0,0 -28,28 -28,28 -3.84,3.84 -11.3,12.68 -17,12.56 -4.24,-0.08 -12.42,-7.44 -16,-10.21 0,0 -37,-29.35 -37,-29.35 0,0 -16.6,22 -16.6,22 0,0 -9.57,10.55 -9.57,10.55 0,0 -9.83,1.45 -9.83,1.45 0,0 -122,0 -122,0 0,0 -9.83,-1.31 -9.83,-1.31 0,0 -9.59,-10.69 -9.59,-10.69 0,0 -17.58,-22 -17.58,-22 -3.87,4.96 -9.97,9.01 -15,12.88 0,0 -24,18.77 -24,18.77 -3.95,3.06 -9.66,8.94 -15,7.74 -4.97,-1.12 -14.1,-11.49 -18,-15.39 0,0 -40,-39 -40,-39 z"
     id="path3641"
     inkscape:connector-curvature="0"
     style="display:inline;fill:#000000;fill-opacity:1;stroke:#000000;stroke-opacity:1"
     inkscape:label="frame" />
  <path
     d="m 406,95 c 0,-5.7 0.49,-17.02 -1.56,-22 -1.5,-3.65 -6.56,-8.12 -9.44,-11 0,0 -21,-20 -21,-20 0,0 -13,-12.98 -13,-12.98 -1.51,-1.44 -3.76,-3.82 -6,-3.82 -2.24,0 -4.49,2.38 -6,3.82 0,0 -12,11.98 -12,11.98 0,0 -22,21 -22,21 -2.91,2.91 -7.9,7.39 -9.57,11 -2.03,4.39 -1.43,14.82 -1.43,20 5.34,-2.52 10.57,-7.91 15,-11.93 0,0 21,-18.35 21,-18.35 3.08,-2.7 9.94,-10.01 14,-10.13 3.97,-0.13 11.88,7.81 15,10.56 0,0 37,31.85 37,31.85 z"
     id="path3639"
     inkscape:connector-curvature="0"
     style="display:inline;fill:#24363f;fill-opacity:1;stroke:#000000;stroke-opacity:1"
     inkscape:label="tip" />
  <path
     d="m 415.96,384 c 0,0 0,-13 0,-13 0,0 -1,-12 -1,-12 0,0 0,-17 0,-17 0,0 -0.96,-11 -0.96,-11 0,0 0,-16 0,-16 0,0 -1,-15 -1,-15 0,0 -1,-41 -1,-41 0,0 -1,-17 -1,-17 0,0 -2,-71 -2,-71 0,0 -1,-15 -1,-15 0,0 0,-15 0,-15 0,0 -0.96,-12 -0.96,-12 0,0 0,-11 0,-11 -0.2,-8.37 -4.2,-9.87 -10.04,-15.05 0,0 -22,-19.23 -22,-19.23 0,0 -13,-11.44 -13,-11.44 -1.58,-1.36 -5.03,-4.44 -7,-4.84 -3.9,-0.79 -13.83,9.52 -17,12.28 0,0 -23,20.23 -23,20.23 -3.19,2.83 -9.15,7.4 -10.98,11.05 -1.51,3.01 -0.98,9.47 -1.02,13 0,0 -1,15 -1,15 0,0 -1,44 -1,44 0,0 -1,13 -1,13 0,0 0,15 0,15 0,0 -1,16 -1,16 0,0 0,14 0,14 0,0 -1,16 -1,16 0,0 -2,71 -2,71 0,0 -1,16 -1,16 0,0 0,13 0,13 0,0 -0.96,12 -0.96,12 0,0 0,15 0,15 0,0 121.92,0 121.92,0 z"
     id="path3637"
     inkscape:connector-curvature="0"
     style="display:inline;fill:none;stroke:#000000;stroke-opacity:1"
     inkscape:label="mid2" />
  <path
     d="m 291.96,86 c -6.68,3.18 -18.16,16.2 -23.96,22 0,0 -16,15.04 -16,15.04 0,0 -28,27.96 -28,27.96 0,0 -12,11.01 -12,11.01 0,0 -29,28.98 -29,28.98 0,0 -12,11.01 -12,11.01 0,0 -28,27.96 -28,27.96 0,0 -10,9.05 -10,9.05 0,0 -29,28.95 -29,28.95 0,0 -21,20.04 -21,20.04 0,0 -48,47 -48,47 0,0 -12,11.72 -12,11.72 -1.72,1.52 -5.08,4.03 -5.66,6.29 -0.95,3.71 6.21,9.54 8.66,11.99 0,0 24,23 24,23 2.37,2.35 9.36,9.91 12,10.83 3.59,1.26 7.5,-2.83 10,-4.96 0,0 25,-21.14 25,-21.14 0,0 78,-65.65 78,-65.65 0,0 20,-16.67 20,-16.67 2.21,-1.83 6.05,-5.55 9,-5.55 3.08,0 5.42,3.08 7.28,5.16 0,0 14,15.98 14,15.98 0,0 37.45,43 37.45,43 5.66,6.7 12.99,17.8 19.27,23 0,0 1.04,-15 1.04,-15 0,0 0,-17 0,-17 0,0 0.96,-11 0.96,-11 0,0 0,-15 0,-15 0,0 1,-15 1,-15 0,0 1,-42 1,-42 0,0 1,-15 1,-15 0,0 0,-15 0,-15 0,0 1,-16 1,-16 0,0 0,-14 0,-14 0,0 1.04,-16 1.04,-16 0,0 0,-17 0,-17 0,0 0.96,-11 0.96,-11 0,0 0,-15 0,-15 0,0 1,-15 1,-15 0,0 0,-14 0,-14 0,0 0.96,-11 0.96,-11 0,0 0,-12 0,-12 z"
     id="path3635"
     inkscape:connector-curvature="0"
     style="display:inline;fill:none;stroke:#000000;stroke-opacity:1"
     inkscape:label="wing1" />
  <path
     d="m 419,86 c -2.54,6.41 -0.09,18.01 0,25 0,0 2,75 2,75 0,0 1,15 1,15 0,0 0,14 0,14 0,0 1,15 1,15 0,0 0,14 0,14 0,0 1,15 1,15 0,0 1,43 1,43 0,0 1,14 1,14 0,0 0,15 0,15 0,0 1,16 1,16 0.01,9.04 -0.2,15.92 1,25 6.28,-5.2 13.61,-16.3 19.27,-23 0,0 36.58,-42 36.58,-42 0,0 14,-16 14,-16 2.07,-2.32 4.73,-5.94 8.15,-6 3.05,-0.06 6.77,3.39 9,5.27 0,0 20,16.81 20,16.81 0,0 79,66.51 79,66.51 0,0 24,20.28 24,20.28 2.5,2.13 6.41,6.22 10,4.96 2.62,-0.91 9.66,-8.5 12,-10.83 0,0 24,-23 24,-23 2.38,-2.38 9.63,-8.33 8.66,-11.91 -0.52,-1.95 -4.14,-4.75 -5.66,-6.18 0,0 -13,-12.91 -13,-12.91 0,0 -51,-50 -51,-50 0,0 -16,-15.01 -16,-15.01 0,0 -28,-27.98 -28,-27.98 0,0 -12,-11.01 -12,-11.01 0,0 -28,-27.96 -28,-27.96 0,0 -10,-9.05 -10,-9.05 0,0 -29,-28.95 -29,-28.95 0,0 -10,-9.05 -10,-9.05 0,0 -28,-27.98 -28,-27.98 0,0 -16,-15.01 -16,-15.01 -6.4,-6.4 -20.6,-21.42 -27,-26 z"
     id="path3633"
     inkscape:connector-curvature="0"
     style="display:inline;fill:none;stroke:#000000;stroke-opacity:1"
     inkscape:label="wing2" />
  <path
     d="m 250,352 c 0,0 -33.95,-39 -33.95,-39 -2.42,-2.72 -9.68,-12.7 -13.09,-12.66 -2.4,0.02 -6.12,3.55 -7.96,5.07 0,0 -17,14.34 -17,14.34 0,0 -16,13.33 -16,13.33 -1.6,1.37 -4.8,3.7 -4.8,6.01 0,2.38 3.24,5.31 4.8,6.91 0,0 15,15 15,15 0,0 19,18.01 19,18.01 2.08,2.03 6.15,6.69 9,7.09 3.31,0.47 9.34,-5.17 12,-7.22 6.99,-5.38 28.43,-21.36 33,-26.88 z"
     id="path3631"
     inkscape:connector-curvature="0"
     style="display:inline;fill:none;stroke:#000000;stroke-opacity:1"
     inkscape:label="beh1" />
  <path
     d="m 505,388 c 0,0 36,-35 36,-35 2.5,-2.5 11.8,-10.71 11.8,-13.91 0,-2.28 -3.23,-4.7 -4.8,-6.09 0,0 -16,-13.41 -16,-13.41 0,0 -17,-14.18 -17,-14.18 -1.8,-1.49 -5.58,-5.05 -7.91,-5.07 -3.27,-0.04 -10.79,10.02 -13.14,12.66 0,0 -33.95,40 -33.95,40 0,0 45,35 45,35 z"
     id="path3629"
     inkscape:connector-curvature="0"
     style="display:inline;fill:none;stroke:#000000;stroke-opacity:1"
     inkscape:label="beh2" />
  <path
     d="m 640.66,302.13 c 0,0 -222.53,-216.8 -222.53,-216.8 0,0 9.79,287.37 9.79,287.37 0,0 18.12,-23.11 18.12,-23.11 0.07,-0.09 0.16,-0.15 0.23,-0.23 0,0 -0.02,-0.02 -0.02,-0.02 0,0 55.1,-63.13 55.1,-63.13 2.23,-2.56 6.11,-2.87 8.72,-0.69 0,0 57.71,48.3 57.71,48.3 0,0 0,0 0,0 0.01,0.01 0.02,0.01 0.03,0.02 0,0 78.81,66.6 78.81,66.6 0,0 47.71,-46.02 47.71,-46.02 0,0 -53.66,-52.28 -53.66,-52.28 0,0 -0.01,0 -0.01,-0.01"
     id="path3627"
     inkscape:connector-curvature="0"
     style="display:inline;fill:none;stroke:#000000;stroke-opacity:1"
     inkscape:label="wing2-2" />
  <path
     d="m 460,352.59 c 0,0 44.92,35.1 44.92,35.1 0,0 49.56,-48.71 49.56,-48.71 0,0 -47.74,-39.94 -47.74,-39.94 0,0 -46.74,53.55 -46.74,53.55 z"
     id="path3625"
     inkscape:connector-curvature="0"
     style="display:inline;fill:#24363f;fill-opacity:1;stroke:#000000;stroke-opacity:1"
     inkscape:label="right sq" />
  <path
     d="m 294.15,383.81 c 0,0 121.64,0 121.64,0 0,0 -9.26,-271.78 -9.26,-271.78 0,0 -52.36,-45.82 -52.36,-45.82 0,0 -50.72,44.64 -50.72,44.64 0,0 -9.3,272.96 -9.3,272.96 z"
     id="path3623"
     inkscape:connector-curvature="0"
     style="display:inline;fill:#3f5661;fill-opacity:1;stroke:#000000;stroke-opacity:1"
     inkscape:label="mid2" />
  <path
     d="m 358.28,53.2 c 0,0 47.66,41.71 47.66,41.71 0,0 -0.75,-22.19 -0.75,-22.19 0,0 -50.22,-48.92 -50.22,-48.92 0,0 -50.22,48.92 -50.22,48.92 0,0 -0.71,20.96 -0.71,20.96 0,0 45.99,-40.47 45.99,-40.47 2.36,-2.07 5.89,-2.08 8.25,-0.01"
     id="path3621"
     inkscape:connector-curvature="0"
     style="display:inline;fill:none;stroke:#000000;stroke-opacity:1"
     inkscape:label="cock" />
  <path
     d="m 142.7,333.44 c 0,0 57.27,-47.91 57.27,-47.91 2.6,-2.19 6.48,-1.89 8.71,0.68 0,0 55.1,63.13 55.1,63.13 0,0 -0.07,0.06 -0.07,0.06 0.06,0.07 0.13,0.12 0.19,0.19 0,0 18.11,23.12 18.11,23.12 0,0 9.8,-287.38 9.8,-287.38 0,0 -223.93,218.16 -223.93,218.16 0,0 0,0 0,0 0,0 -52.27,50.93 -52.27,50.93 0,0 47.7,46.02 47.7,46.02 0,0 78.82,-66.61 78.82,-66.61 0.18,-0.15 0.38,-0.26 0.57,-0.39"
     id="path3619"
     inkscape:connector-curvature="0"
     style="display:inline;fill:none;stroke:#000000;stroke-opacity:1"
     inkscape:label="wing1-1" />
  <path
     d="m 155.5,339.02 c 0,0 49.52,48.67 49.52,48.67 0,0 44.97,-35.15 44.97,-35.15 0,0 -46.7,-53.5 -46.7,-53.5 0,0 -47.79,39.98 -47.79,39.98 z"
     id="path3617"
     inkscape:connector-curvature="0"
     style="display:inline;fill:#24363f;fill-opacity:1;stroke:#000000;stroke-opacity:1"
     inkscape:label="left sq" />
  <path
     d="m 396.92,127.2 c 3.15,21.08 1.65,43.72 2.4,65.02 0.81,22.92 1.61,45.83 2.42,68.74 0.15,4.37 0.3,8.74 0.45,13.11 -0.02,-0.84 -5.86,-4.64 -6.75,-5.72 -2.92,-3.54 -3.64,-7.39 -3.91,-11.91 -2.41,-39.93 -2.34,-80.14 -3,-120.14 -0.04,-2.33 1.2,-17.31 6.63,-12.78 1.08,0.9 1.55,2.25 1.76,3.68"
     id="path3615"
     inkscape:connector-curvature="0"
     style="display:inline;fill:#ffffff;fill-opacity:1;stroke:#000000;stroke-opacity:1"
     inkscape:label="shine1" />
  <path
     d="m 500.4,180.57 c 0,0 84.03,80.98 84.03,80.98 0,0 9.08,14 -21.2,-3.78 -30.28,-17.79 -72.67,-68.12 -72.67,-68.12 0,0 -12.11,-26.86 9.84,-9.08"
     id="path210"
     inkscape:connector-curvature="0"
     style="display:inline;fill:#ffffff;stroke:#000000;stroke-opacity:1;fill-opacity:1"
     inkscape:label="shine2" />
  <path
     style="display:inline;opacity:1;fill:#344853;fill-opacity:0;fill-rule:nonzero;stroke:#000000;stroke-width:0.61022669;stroke-opacity:1"
     d="M 52.134406,411.13215 C 23.367114,383.42916 19.487278,379.4841 19.487278,377.93621 c 0,-1.14649 31.621224,-32.27326 145.328522,-143.05607 79.93069,-77.87491 145.38495,-141.518888 145.45391,-141.431057 0.069,0.08783 -1.8799,58.512617 -4.33079,129.832867 -2.45091,71.32024 -4.77225,139.00964 -5.15854,150.42088 -0.38629,11.41124 -0.78167,20.82969 -0.87862,20.92989 -0.097,0.1002 -4.20812,-4.97994 -9.13594,-11.2892 -4.92781,-6.30925 -22.4237,-26.91207 -38.87976,-45.78404 -31.86983,-36.54863 -31.37736,-36.06733 -35.96521,-35.14975 -1.77608,0.35521 -46.88108,37.76712 -113.74786,94.34707 -24.217451,20.49182 -33.356625,27.88396 -34.477803,27.88707 -1.161545,0.003 -4.874566,-3.22086 -15.560781,-13.51172 z"
     id="path3653"
     inkscape:connector-curvature="0"
     transform="scale(0.93750006)"
     inkscape:label="wing1-2" />
  <path
     style="display:inline;opacity:1;fill:#0081b8;fill-opacity:0;fill-rule:nonzero;stroke:#000000;stroke-width:0.61022669;stroke-opacity:1"
     d="M 52.134406,411.13215 C 23.367114,383.42916 19.487278,379.4841 19.487278,377.93621 c 0,-1.14649 31.621224,-32.27326 145.328522,-143.05607 79.93069,-77.87491 145.38495,-141.518888 145.45391,-141.431057 0.069,0.08783 -1.8799,58.512617 -4.33079,129.832867 -2.45091,71.32024 -4.77225,139.00964 -5.15854,150.42088 -0.38629,11.41124 -0.78167,20.82969 -0.87862,20.92989 -0.097,0.1002 -4.20812,-4.97994 -9.13594,-11.2892 -4.92781,-6.30925 -22.4237,-26.91207 -38.87976,-45.78404 -31.86983,-36.54863 -31.37736,-36.06733 -35.96521,-35.14975 -1.77608,0.35521 -46.88108,37.76712 -113.74786,94.34707 -24.217451,20.49182 -33.356625,27.88396 -34.477803,27.88707 -1.161545,0.003 -4.874566,-3.22086 -15.560781,-13.51172 z"
     id="path3674"
     inkscape:connector-curvature="0"
     transform="scale(0.93750006)"
     inkscape:label="wing1-3" />
  <path
     style="display:inline;opacity:1;fill:#344853;fill-opacity:1;fill-rule:nonzero;stroke:#000000;stroke-width:0.61022669;stroke-opacity:1"
     d="M 61.740277,419.247 C 55.470538,413.60579 26.442666,385.37507 22.607884,381.18924 l -2.645281,-2.88743 4.096483,-4.43529 C 30.803053,366.5648 94.029001,304.6428 208.66457,193.06829 300.03112,104.14144 309.43934,95.021681 309.59052,95.236685 c 0.0784,0.111523 -0.75529,26.427265 -1.85267,58.479415 -5.94099,173.52265 -8.23082,238.87635 -8.37468,239.0202 -0.088,0.088 -3.74704,-4.29577 -8.13112,-9.74181 -15.97209,-19.84103 -62.10045,-72.89097 -67.96715,-78.16564 -3.51785,-3.16285 -5.07675,-3.7831 -7.34284,-2.92153 -2.75915,1.04903 -30.54647,23.94556 -96.35435,79.39524 -36.526976,30.77761 -51.075562,42.74397 -51.9677,42.74397 -0.288997,0 -2.925876,-2.15979 -5.859733,-4.79953 z"
     id="path3680"
     inkscape:connector-curvature="0"
     transform="scale(0.93750006)"
     inkscape:label="wing1-4" />
  <path
     style="display:inline;opacity:1;fill:#344853;fill-opacity:1;fill-rule:nonzero;stroke:#000000;stroke-width:0.61022669;stroke-opacity:1"
     d="m 654.42815,396.20384 c -62.11673,-52.58561 -110.17205,-92.6716 -112.03966,-93.45936 -2.16059,-0.91135 -5.19893,-0.49026 -7.03931,0.9756 -2.76081,2.19897 -60.82405,69.38613 -69.17975,80.0505 -8.09044,10.3258 -8.85777,11.13221 -9.00013,9.45851 -0.45138,-5.30669 -9.93139,-291.16452 -9.78318,-294.999276 l 0.17518,-4.532361 144.92884,141.182297 c 79.71087,77.65026 145.14592,141.53943 145.41124,141.97593 0.26532,0.43649 0.12802,1.45775 -0.30511,2.26946 -0.43314,0.81171 -11.08509,11.38802 -23.67101,23.50293 -17.81928,17.1524 -23.22112,22.02282 -24.40907,22.00778 -1.11079,-0.0141 -10.65079,-7.74438 -35.08804,-28.43201 z m -30.1661,-111.31046 c 1.60664,-0.85986 1.51841,-3.59891 -0.19268,-5.9814 -1.9844,-2.76307 -89.28038,-86.63544 -92.90987,-89.2661 -6.54367,-4.74286 -10.24197,-5.42496 -11.79215,-2.17491 -0.69686,1.46101 -0.67286,2.37371 0.16049,6.10227 1.57429,7.04369 3.13103,9.5082 12.85497,20.35094 17.25844,19.24413 37.63702,39.07263 51.54353,50.15222 11.10957,8.85122 25.95905,17.67347 34.17219,20.3021 4.02702,1.28886 4.62412,1.33874 6.16352,0.51488 z"
     id="path3690"
     inkscape:connector-curvature="0"
     transform="scale(0.93750006)"
     inkscape:label="wing2-3" />
</svg>
